<?xml version="1.0" encoding="UTF-8" standalone="no"?>
<!DOCTYPE svg PUBLIC "-//W3C//DTD SVG 1.1//EN"
 "http://www.w3.org/Graphics/SVG/1.1/DTD/svg11.dtd">
<!-- Generated by graphviz version 2.38.0 (20140413.2041)
 -->
<!-- Title: example Pages: 1 -->
<svg width="714pt" height="332pt"
 viewBox="0.00 0.00 714.00 332.00" xmlns="http://www.w3.org/2000/svg" xmlns:xlink="http://www.w3.org/1999/xlink">
<g id="graph0" class="graph" transform="scale(1 1) rotate(0) translate(4 328)">
<title>example</title>
<polygon fill="white" stroke="none" points="-4,4 -4,-328 710,-328 710,4 -4,4"/>
<!-- node519821334 -->
<g id="node1" class="node"><title>node519821334</title>
<ellipse fill="none" stroke="black" cx="355" cy="-306" rx="27" ry="18"/>
<text text-anchor="middle" x="355" y="-302.3" font-family="Times New Roman,serif" font-size="14.00">S</text>
</g>
<!-- node1781256139 -->
<g id="node2" class="node"><title>node1781256139</title>
<ellipse fill="none" stroke="red" cx="27" cy="-234" rx="27" ry="18"/>
<text text-anchor="middle" x="27" y="-230.3" font-family="Times New Roman,serif" font-size="14.00">var</text>
</g>
<!-- node519821334&#45;&gt;node1781256139 -->
<g id="edge1" class="edge"><title>node519821334&#45;&gt;node1781256139</title>
<path fill="none" stroke="black" d="M328.26,-302.51C276.181,-297.147 157.933,-282.448 63,-252 61.0749,-251.383 59.1197,-250.684 57.1665,-249.932"/>
<polygon fill="black" stroke="black" points="58.1363,-246.54 47.5647,-245.839 55.3916,-252.98 58.1363,-246.54"/>
</g>
<!-- node1223685984 -->
<g id="node3" class="node"><title>node1223685984</title>
<ellipse fill="none" stroke="black" cx="99" cy="-234" rx="27" ry="18"/>
<text text-anchor="middle" x="99" y="-230.3" font-family="Times New Roman,serif" font-size="14.00">X</text>
</g>
<!-- node519821334&#45;&gt;node1223685984 -->
<g id="edge2" class="edge"><title>node519821334&#45;&gt;node1223685984</title>
<path fill="none" stroke="black" d="M329.101,-300.544C287.459,-292.986 203.365,-276.09 135,-252 133.093,-251.328 131.152,-250.588 129.21,-249.803"/>
<polygon fill="black" stroke="black" points="130.201,-246.418 119.636,-245.628 127.403,-252.834 130.201,-246.418"/>
</g>
<!-- node1837760739 -->
<g id="node7" class="node"><title>node1837760739</title>
<ellipse fill="none" stroke="red" cx="171" cy="-234" rx="27" ry="18"/>
<text text-anchor="middle" x="171" y="-230.3" font-family="Times New Roman,serif" font-size="14.00">:</text>
</g>
<!-- node519821334&#45;&gt;node1837760739 -->
<g id="edge3" class="edge"><title>node519821334&#45;&gt;node1837760739</title>
<path fill="none" stroke="black" d="M331.148,-297.256C301.67,-287.503 250.12,-269.852 207,-252 205.18,-251.246 203.319,-250.45 201.449,-249.63"/>
<polygon fill="black" stroke="black" points="202.719,-246.363 192.167,-245.414 199.825,-252.736 202.719,-246.363"/>
</g>
<!-- node1418428263 -->
<g id="node8" class="node"><title>node1418428263</title>
<ellipse fill="none" stroke="red" cx="245" cy="-234" rx="28.6953" ry="18"/>
<text text-anchor="middle" x="245" y="-230.3" font-family="Times New Roman,serif" font-size="14.00">array</text>
</g>
<!-- node519821334&#45;&gt;node1418428263 -->
<g id="edge4" class="edge"><title>node519821334&#45;&gt;node1418428263</title>
<path fill="none" stroke="black" d="M335.839,-292.807C318.438,-281.733 292.558,-265.264 272.869,-252.735"/>
<polygon fill="black" stroke="black" points="274.626,-249.704 264.31,-247.288 270.868,-255.61 274.626,-249.704"/>
</g>
<!-- node2059904228 -->
<g id="node9" class="node"><title>node2059904228</title>
<ellipse fill="none" stroke="red" cx="319" cy="-234" rx="27" ry="18"/>
<text text-anchor="middle" x="319" y="-230.3" font-family="Times New Roman,serif" font-size="14.00">[</text>
</g>
<!-- node519821334&#45;&gt;node2059904228 -->
<g id="edge5" class="edge"><title>node519821334&#45;&gt;node2059904228</title>
<path fill="none" stroke="black" d="M346.65,-288.765C342.288,-280.283 336.853,-269.714 331.959,-260.197"/>
<polygon fill="black" stroke="black" points="334.99,-258.439 327.304,-251.147 328.765,-261.641 334.99,-258.439"/>
</g>
<!-- node1836643189 -->
<g id="node10" class="node"><title>node1836643189</title>
<ellipse fill="none" stroke="black" cx="391" cy="-234" rx="27" ry="18"/>
<text text-anchor="middle" x="391" y="-230.3" font-family="Times New Roman,serif" font-size="14.00">D</text>
</g>
<!-- node519821334&#45;&gt;node1836643189 -->
<g id="edge6" class="edge"><title>node519821334&#45;&gt;node1836643189</title>
<path fill="none" stroke="black" d="M363.35,-288.765C367.712,-280.283 373.147,-269.714 378.041,-260.197"/>
<polygon fill="black" stroke="black" points="381.235,-261.641 382.696,-251.147 375.01,-258.439 381.235,-261.641"/>
</g>
<!-- node1566502717 -->
<g id="node19" class="node"><title>node1566502717</title>
<ellipse fill="none" stroke="red" cx="463" cy="-234" rx="27" ry="18"/>
<text text-anchor="middle" x="463" y="-230.3" font-family="Times New Roman,serif" font-size="14.00">]</text>
</g>
<!-- node519821334&#45;&gt;node1566502717 -->
<g id="edge7" class="edge"><title>node519821334&#45;&gt;node1566502717</title>
<path fill="none" stroke="black" d="M373.812,-292.807C391.002,-281.665 416.618,-265.062 435.993,-252.504"/>
<polygon fill="black" stroke="black" points="437.916,-255.429 444.403,-247.053 434.108,-249.555 437.916,-255.429"/>
</g>
<!-- node1458849419 -->
<g id="node20" class="node"><title>node1458849419</title>
<ellipse fill="none" stroke="red" cx="535" cy="-234" rx="27" ry="18"/>
<text text-anchor="middle" x="535" y="-230.3" font-family="Times New Roman,serif" font-size="14.00">of</text>
</g>
<!-- node519821334&#45;&gt;node1458849419 -->
<g id="edge8" class="edge"><title>node519821334&#45;&gt;node1458849419</title>
<path fill="none" stroke="black" d="M378.694,-297.002C407.437,-287.135 457.234,-269.507 499,-252 500.817,-251.238 502.675,-250.436 504.543,-249.611"/>
<polygon fill="black" stroke="black" points="506.172,-252.715 513.82,-245.383 503.269,-246.345 506.172,-252.715"/>
</g>
<!-- node1824835605 -->
<g id="node21" class="node"><title>node1824835605</title>
<ellipse fill="none" stroke="black" cx="607" cy="-234" rx="27" ry="18"/>
<text text-anchor="middle" x="607" y="-230.3" font-family="Times New Roman,serif" font-size="14.00">T</text>
</g>
<!-- node519821334&#45;&gt;node1824835605 -->
<g id="edge9" class="edge"><title>node519821334&#45;&gt;node1824835605</title>
<path fill="none" stroke="black" d="M380.757,-300.418C421.75,-292.741 504.042,-275.753 571,-252 572.905,-251.324 574.845,-250.581 576.787,-249.794"/>
<polygon fill="black" stroke="black" points="578.596,-252.823 586.359,-245.613 575.794,-246.409 578.596,-252.823"/>
</g>
<!-- node269468037 -->
<g id="node23" class="node"><title>node269468037</title>
<ellipse fill="none" stroke="red" cx="679" cy="-234" rx="27" ry="18"/>
<text text-anchor="middle" x="679" y="-230.3" font-family="Times New Roman,serif" font-size="14.00">;</text>
</g>
<!-- node519821334&#45;&gt;node269468037 -->
<g id="edge10" class="edge"><title>node519821334&#45;&gt;node269468037</title>
<path fill="none" stroke="black" d="M381.772,-302.416C433.34,-296.929 549.604,-282.081 643,-252 644.924,-251.38 646.879,-250.68 648.832,-249.926"/>
<polygon fill="black" stroke="black" points="650.608,-252.974 658.432,-245.83 647.861,-246.535 650.608,-252.974"/>
</g>
<!-- node1076835071 -->
<g id="node4" class="node"><title>node1076835071</title>
<ellipse fill="none" stroke="red" cx="68" cy="-162" rx="27" ry="18"/>
<text text-anchor="middle" x="68" y="-158.3" font-family="Times New Roman,serif" font-size="14.00">x</text>
</g>
<!-- node1223685984&#45;&gt;node1076835071 -->
<g id="edge11" class="edge"><title>node1223685984&#45;&gt;node1076835071</title>
<path fill="none" stroke="black" d="M91.6534,-216.411C87.9858,-208.129 83.4667,-197.925 79.3646,-188.662"/>
<polygon fill="black" stroke="black" points="82.5434,-187.196 75.2938,-179.47 76.1429,-190.031 82.5434,-187.196"/>
</g>
<!-- node1463757745 -->
<g id="node5" class="node"><title>node1463757745</title>
<ellipse fill="none" stroke="black" cx="140" cy="-162" rx="27" ry="18"/>
<text text-anchor="middle" x="140" y="-158.3" font-family="Times New Roman,serif" font-size="14.00">X&#39;&#39;</text>
</g>
<!-- node1223685984&#45;&gt;node1463757745 -->
<g id="edge12" class="edge"><title>node1223685984&#45;&gt;node1463757745</title>
<path fill="none" stroke="black" d="M108.509,-216.765C113.529,-208.195 119.796,-197.494 125.415,-187.9"/>
<polygon fill="black" stroke="black" points="128.508,-189.545 130.542,-179.147 122.468,-186.007 128.508,-189.545"/>
</g>
<!-- node1525262377 -->
<g id="node6" class="node"><title>node1525262377</title>
<ellipse fill="none" stroke="red" cx="140" cy="-90" rx="27" ry="18"/>
<text text-anchor="middle" x="140" y="-86.3" font-family="Times New Roman,serif" font-size="14.00">ε</text>
</g>
<!-- node1463757745&#45;&gt;node1525262377 -->
<g id="edge13" class="edge"><title>node1463757745&#45;&gt;node1525262377</title>
<path fill="none" stroke="black" d="M140,-143.697C140,-135.983 140,-126.712 140,-118.112"/>
<polygon fill="black" stroke="black" points="143.5,-118.104 140,-108.104 136.5,-118.104 143.5,-118.104"/>
</g>
<!-- node1355316001 -->
<g id="node11" class="node"><title>node1355316001</title>
<ellipse fill="none" stroke="black" cx="313" cy="-162" rx="27" ry="18"/>
<text text-anchor="middle" x="313" y="-158.3" font-family="Times New Roman,serif" font-size="14.00">R</text>
</g>
<!-- node1836643189&#45;&gt;node1355316001 -->
<g id="edge14" class="edge"><title>node1836643189&#45;&gt;node1355316001</title>
<path fill="none" stroke="black" d="M375.59,-219.17C364.266,-209.008 348.691,-195.03 335.911,-183.561"/>
<polygon fill="black" stroke="black" points="338.158,-180.875 328.378,-176.801 333.483,-186.085 338.158,-180.875"/>
</g>
<!-- node1576861390 -->
<g id="node17" class="node"><title>node1576861390</title>
<ellipse fill="none" stroke="black" cx="421" cy="-162" rx="27" ry="18"/>
<text text-anchor="middle" x="421" y="-158.3" font-family="Times New Roman,serif" font-size="14.00">D&#39;&#39;</text>
</g>
<!-- node1836643189&#45;&gt;node1576861390 -->
<g id="edge15" class="edge"><title>node1836643189&#45;&gt;node1576861390</title>
<path fill="none" stroke="black" d="M398.11,-216.411C401.659,-208.129 406.032,-197.925 410.002,-188.662"/>
<polygon fill="black" stroke="black" points="413.219,-190.04 413.941,-179.47 406.785,-187.283 413.219,-190.04"/>
</g>
<!-- node1597462040 -->
<g id="node12" class="node"><title>node1597462040</title>
<ellipse fill="none" stroke="black" cx="223" cy="-90" rx="27" ry="18"/>
<text text-anchor="middle" x="223" y="-86.3" font-family="Times New Roman,serif" font-size="14.00">N</text>
</g>
<!-- node1355316001&#45;&gt;node1597462040 -->
<g id="edge16" class="edge"><title>node1355316001&#45;&gt;node1597462040</title>
<path fill="none" stroke="black" d="M296.072,-147.834C282.495,-137.274 263.243,-122.3 247.908,-110.373"/>
<polygon fill="black" stroke="black" points="249.895,-107.484 239.852,-104.107 245.597,-113.01 249.895,-107.484"/>
</g>
<!-- node853119666 -->
<g id="node14" class="node"><title>node853119666</title>
<ellipse fill="none" stroke="red" cx="295" cy="-90" rx="27" ry="18"/>
<text text-anchor="middle" x="295" y="-86.3" font-family="Times New Roman,serif" font-size="14.00">..</text>
</g>
<!-- node1355316001&#45;&gt;node853119666 -->
<g id="edge17" class="edge"><title>node1355316001&#45;&gt;node853119666</title>
<path fill="none" stroke="black" d="M308.643,-144.055C306.609,-136.145 304.139,-126.54 301.863,-117.688"/>
<polygon fill="black" stroke="black" points="305.197,-116.602 299.317,-107.789 298.418,-118.346 305.197,-116.602"/>
</g>
<!-- node559670971 -->
<g id="node15" class="node"><title>node559670971</title>
<ellipse fill="none" stroke="black" cx="367" cy="-90" rx="27" ry="18"/>
<text text-anchor="middle" x="367" y="-86.3" font-family="Times New Roman,serif" font-size="14.00">N</text>
</g>
<!-- node1355316001&#45;&gt;node559670971 -->
<g id="edge18" class="edge"><title>node1355316001&#45;&gt;node559670971</title>
<path fill="none" stroke="black" d="M324.984,-145.465C331.976,-136.402 340.936,-124.786 348.785,-114.612"/>
<polygon fill="black" stroke="black" points="351.712,-116.548 355.049,-106.492 346.17,-112.272 351.712,-116.548"/>
</g>
<!-- node403716510 -->
<g id="node13" class="node"><title>node403716510</title>
<ellipse fill="none" stroke="red" cx="223" cy="-18" rx="27" ry="18"/>
<text text-anchor="middle" x="223" y="-14.3" font-family="Times New Roman,serif" font-size="14.00">1</text>
</g>
<!-- node1597462040&#45;&gt;node403716510 -->
<g id="edge19" class="edge"><title>node1597462040&#45;&gt;node403716510</title>
<path fill="none" stroke="black" d="M223,-71.6966C223,-63.9827 223,-54.7125 223,-46.1124"/>
<polygon fill="black" stroke="black" points="226.5,-46.1043 223,-36.1043 219.5,-46.1044 226.5,-46.1043"/>
</g>
<!-- node1144648478 -->
<g id="node16" class="node"><title>node1144648478</title>
<ellipse fill="none" stroke="red" cx="367" cy="-18" rx="27" ry="18"/>
<text text-anchor="middle" x="367" y="-14.3" font-family="Times New Roman,serif" font-size="14.00">10</text>
</g>
<!-- node559670971&#45;&gt;node1144648478 -->
<g id="edge20" class="edge"><title>node559670971&#45;&gt;node1144648478</title>
<path fill="none" stroke="black" d="M367,-71.6966C367,-63.9827 367,-54.7125 367,-46.1124"/>
<polygon fill="black" stroke="black" points="370.5,-46.1043 367,-36.1043 363.5,-46.1044 370.5,-46.1043"/>
</g>
<!-- node600746945 -->
<g id="node18" class="node"><title>node600746945</title>
<ellipse fill="none" stroke="red" cx="439" cy="-90" rx="27" ry="18"/>
<text text-anchor="middle" x="439" y="-86.3" font-family="Times New Roman,serif" font-size="14.00">ε</text>
</g>
<!-- node1576861390&#45;&gt;node600746945 -->
<g id="edge21" class="edge"><title>node1576861390&#45;&gt;node600746945</title>
<path fill="none" stroke="black" d="M425.357,-144.055C427.391,-136.145 429.861,-126.54 432.137,-117.688"/>
<polygon fill="black" stroke="black" points="435.582,-118.346 434.683,-107.789 428.803,-116.602 435.582,-118.346"/>
</g>
<!-- node981661423 -->
<g id="node22" class="node"><title>node981661423</title>
<ellipse fill="none" stroke="red" cx="607" cy="-162" rx="34.394" ry="18"/>
<text text-anchor="middle" x="607" y="-158.3" font-family="Times New Roman,serif" font-size="14.00">integer</text>
</g>
<!-- node1824835605&#45;&gt;node981661423 -->
<g id="edge22" class="edge"><title>node1824835605&#45;&gt;node981661423</title>
<path fill="none" stroke="black" d="M607,-215.697C607,-207.983 607,-198.712 607,-190.112"/>
<polygon fill="black" stroke="black" points="610.5,-190.104 607,-180.104 603.5,-190.104 610.5,-190.104"/>
</g>
</g>
</svg>
